<mxfile host="app.diagrams.net" modified="2024-06-18T05:24:08.868Z" agent="Mozilla/5.0 (Windows NT 10.0; Win64; x64) AppleWebKit/537.36 (KHTML, like Gecko) Chrome/124.0.0.0 Safari/537.36" etag="rIUkK1NJp0jNQt0stG0S" version="24.5.4" type="device" pages="3">
  <diagram name="Page-1" id="5f0bae14-7c28-e335-631c-24af17079c00">
    <mxGraphModel dx="1399" dy="783" grid="1" gridSize="10" guides="1" tooltips="1" connect="1" arrows="1" fold="1" page="1" pageScale="1" pageWidth="1100" pageHeight="850" background="none" math="0" shadow="0">
      <root>
        <mxCell id="0" />
        <mxCell id="1" parent="0" />
        <mxCell id="MrcbbKhaGXxf3Vi9aXpZ-23" value="&lt;font style=&quot;font-size: 16px;&quot;&gt;NetMate&lt;/font&gt;" style="rounded=0;whiteSpace=wrap;html=1;align=center;verticalAlign=top;labelPosition=center;verticalLabelPosition=middle;" parent="1" vertex="1">
          <mxGeometry x="170" y="175" width="700" height="155" as="geometry" />
        </mxCell>
        <mxCell id="MrcbbKhaGXxf3Vi9aXpZ-18" style="edgeStyle=orthogonalEdgeStyle;rounded=0;orthogonalLoop=1;jettySize=auto;html=1;exitX=1;exitY=0.5;exitDx=0;exitDy=0;endArrow=halfCircle;endFill=0;" parent="1" source="MrcbbKhaGXxf3Vi9aXpZ-10" edge="1">
          <mxGeometry relative="1" as="geometry">
            <mxPoint x="400" y="260" as="targetPoint" />
          </mxGeometry>
        </mxCell>
        <mxCell id="MrcbbKhaGXxf3Vi9aXpZ-10" value="&lt;span style=&quot;font-size: 14px;&quot;&gt;Клиентская часть&lt;/span&gt;" style="html=1;dropTarget=0;whiteSpace=wrap;fontSize=14;fontStyle=0" parent="1" vertex="1">
          <mxGeometry x="200" y="230" width="160" height="60" as="geometry" />
        </mxCell>
        <mxCell id="MrcbbKhaGXxf3Vi9aXpZ-11" value="" style="shape=module;jettyWidth=8;jettyHeight=4;fontSize=14;" parent="MrcbbKhaGXxf3Vi9aXpZ-10" vertex="1">
          <mxGeometry x="1" width="20" height="20" relative="1" as="geometry">
            <mxPoint x="-27" y="7" as="offset" />
          </mxGeometry>
        </mxCell>
        <mxCell id="MrcbbKhaGXxf3Vi9aXpZ-20" style="edgeStyle=orthogonalEdgeStyle;rounded=0;orthogonalLoop=1;jettySize=auto;html=1;exitX=1;exitY=0.5;exitDx=0;exitDy=0;endArrow=halfCircle;endFill=0;" parent="1" source="MrcbbKhaGXxf3Vi9aXpZ-12" edge="1">
          <mxGeometry relative="1" as="geometry">
            <mxPoint x="640" y="260" as="targetPoint" />
          </mxGeometry>
        </mxCell>
        <mxCell id="MrcbbKhaGXxf3Vi9aXpZ-22" style="edgeStyle=orthogonalEdgeStyle;rounded=0;orthogonalLoop=1;jettySize=auto;html=1;exitX=0;exitY=0.5;exitDx=0;exitDy=0;endArrow=circle;endFill=0;" parent="1" source="MrcbbKhaGXxf3Vi9aXpZ-12" edge="1">
          <mxGeometry relative="1" as="geometry">
            <mxPoint x="400" y="260" as="targetPoint" />
          </mxGeometry>
        </mxCell>
        <mxCell id="MrcbbKhaGXxf3Vi9aXpZ-12" value="&lt;span style=&quot;font-size: 14px;&quot;&gt;Серверная часть&lt;/span&gt;" style="html=1;dropTarget=0;whiteSpace=wrap;fontSize=14;fontStyle=0" parent="1" vertex="1">
          <mxGeometry x="440" y="230" width="160" height="60" as="geometry" />
        </mxCell>
        <mxCell id="MrcbbKhaGXxf3Vi9aXpZ-13" value="" style="shape=module;jettyWidth=8;jettyHeight=4;fontSize=14;" parent="MrcbbKhaGXxf3Vi9aXpZ-12" vertex="1">
          <mxGeometry x="1" width="20" height="20" relative="1" as="geometry">
            <mxPoint x="-27" y="7" as="offset" />
          </mxGeometry>
        </mxCell>
        <mxCell id="MrcbbKhaGXxf3Vi9aXpZ-21" style="edgeStyle=orthogonalEdgeStyle;rounded=0;orthogonalLoop=1;jettySize=auto;html=1;exitX=0;exitY=0.5;exitDx=0;exitDy=0;endArrow=circle;endFill=0;" parent="1" source="MrcbbKhaGXxf3Vi9aXpZ-14" edge="1">
          <mxGeometry relative="1" as="geometry">
            <mxPoint x="640" y="260" as="targetPoint" />
          </mxGeometry>
        </mxCell>
        <mxCell id="MrcbbKhaGXxf3Vi9aXpZ-14" value="&lt;span style=&quot;font-size: 14px;&quot;&gt;База данных&lt;/span&gt;" style="html=1;dropTarget=0;whiteSpace=wrap;fontSize=14;fontStyle=0" parent="1" vertex="1">
          <mxGeometry x="680" y="230" width="160" height="60" as="geometry" />
        </mxCell>
        <mxCell id="MrcbbKhaGXxf3Vi9aXpZ-15" value="" style="shape=module;jettyWidth=8;jettyHeight=4;fontSize=14;" parent="MrcbbKhaGXxf3Vi9aXpZ-14" vertex="1">
          <mxGeometry x="1" width="20" height="20" relative="1" as="geometry">
            <mxPoint x="-27" y="7" as="offset" />
          </mxGeometry>
        </mxCell>
      </root>
    </mxGraphModel>
  </diagram>
  <diagram id="vncX9R6QNjsf2ARA4EyF" name="Страница — 2">
    <mxGraphModel dx="2226" dy="783" grid="1" gridSize="10" guides="1" tooltips="1" connect="1" arrows="1" fold="1" page="1" pageScale="1" pageWidth="827" pageHeight="1169" math="0" shadow="0">
      <root>
        <mxCell id="0" />
        <mxCell id="1" parent="0" />
        <mxCell id="77i7dsQkNjRgF99UxVRS-1" value="&lt;font style=&quot;font-size: 16px;&quot;&gt;NetMate&lt;/font&gt;" style="rounded=0;whiteSpace=wrap;html=1;align=center;verticalAlign=top;labelPosition=center;verticalLabelPosition=middle;movable=0;resizable=0;rotatable=0;deletable=0;editable=0;locked=1;connectable=0;" parent="1" vertex="1">
          <mxGeometry x="50" y="130" width="700" height="370" as="geometry" />
        </mxCell>
        <mxCell id="77i7dsQkNjRgF99UxVRS-2" value="Серверная часть" style="html=1;whiteSpace=wrap;verticalAlign=top;fontSize=15;" parent="1" vertex="1">
          <mxGeometry x="300" y="185" width="200" height="285" as="geometry" />
        </mxCell>
        <mxCell id="JCziU4_20GwVzB60mhzX-19" style="edgeStyle=orthogonalEdgeStyle;rounded=0;orthogonalLoop=1;jettySize=auto;html=1;exitX=1;exitY=0.5;exitDx=0;exitDy=0;endArrow=halfCircle;endFill=0;" edge="1" parent="1" source="77i7dsQkNjRgF99UxVRS-3">
          <mxGeometry relative="1" as="geometry">
            <mxPoint x="270" y="255.33333333333337" as="targetPoint" />
          </mxGeometry>
        </mxCell>
        <mxCell id="77i7dsQkNjRgF99UxVRS-3" value="&lt;span style=&quot;font-size: 14px;&quot;&gt;Клиентская часть&lt;/span&gt;" style="html=1;dropTarget=0;whiteSpace=wrap;fontSize=14;fontStyle=0" parent="1" vertex="1">
          <mxGeometry x="70" y="225" width="160" height="60" as="geometry" />
        </mxCell>
        <mxCell id="77i7dsQkNjRgF99UxVRS-4" value="" style="shape=module;jettyWidth=8;jettyHeight=4;fontSize=14;" parent="77i7dsQkNjRgF99UxVRS-3" vertex="1">
          <mxGeometry x="1" width="20" height="20" relative="1" as="geometry">
            <mxPoint x="-27" y="7" as="offset" />
          </mxGeometry>
        </mxCell>
        <mxCell id="JCziU4_20GwVzB60mhzX-21" style="edgeStyle=orthogonalEdgeStyle;rounded=0;orthogonalLoop=1;jettySize=auto;html=1;exitX=0.25;exitY=1;exitDx=0;exitDy=0;endArrow=circle;endFill=0;" edge="1" parent="1" source="77i7dsQkNjRgF99UxVRS-5">
          <mxGeometry relative="1" as="geometry">
            <mxPoint x="580" y="340" as="targetPoint" />
            <Array as="points">
              <mxPoint x="610" y="340" />
            </Array>
          </mxGeometry>
        </mxCell>
        <mxCell id="JCziU4_20GwVzB60mhzX-22" style="edgeStyle=orthogonalEdgeStyle;rounded=0;orthogonalLoop=1;jettySize=auto;html=1;exitX=0.75;exitY=1;exitDx=0;exitDy=0;endArrow=circle;endFill=0;" edge="1" parent="1" source="77i7dsQkNjRgF99UxVRS-5">
          <mxGeometry relative="1" as="geometry">
            <mxPoint x="580" y="420" as="targetPoint" />
            <Array as="points">
              <mxPoint x="690" y="420" />
            </Array>
          </mxGeometry>
        </mxCell>
        <mxCell id="77i7dsQkNjRgF99UxVRS-5" value="&lt;span style=&quot;font-size: 14px;&quot;&gt;СУБД&lt;/span&gt;" style="html=1;dropTarget=0;whiteSpace=wrap;fontSize=14;fontStyle=0" parent="1" vertex="1">
          <mxGeometry x="570" y="225" width="160" height="60" as="geometry" />
        </mxCell>
        <mxCell id="77i7dsQkNjRgF99UxVRS-6" value="" style="shape=module;jettyWidth=8;jettyHeight=4;fontSize=14;" parent="77i7dsQkNjRgF99UxVRS-5" vertex="1">
          <mxGeometry x="1" width="20" height="20" relative="1" as="geometry">
            <mxPoint x="-27" y="7" as="offset" />
          </mxGeometry>
        </mxCell>
        <mxCell id="JCziU4_20GwVzB60mhzX-15" style="edgeStyle=orthogonalEdgeStyle;rounded=0;orthogonalLoop=1;jettySize=auto;html=1;exitX=1;exitY=0.5;exitDx=0;exitDy=0;endArrow=halfCircle;endFill=0;" edge="1" parent="1" source="77i7dsQkNjRgF99UxVRS-7">
          <mxGeometry relative="1" as="geometry">
            <mxPoint x="580" y="340.33333333333337" as="targetPoint" />
          </mxGeometry>
        </mxCell>
        <mxCell id="JCziU4_20GwVzB60mhzX-18" style="edgeStyle=orthogonalEdgeStyle;rounded=0;orthogonalLoop=1;jettySize=auto;html=1;exitX=0;exitY=0.5;exitDx=0;exitDy=0;endArrow=halfCircle;endFill=0;" edge="1" parent="1" source="77i7dsQkNjRgF99UxVRS-7">
          <mxGeometry relative="1" as="geometry">
            <mxPoint x="170" y="340.33333333333337" as="targetPoint" />
          </mxGeometry>
        </mxCell>
        <mxCell id="77i7dsQkNjRgF99UxVRS-7" value="&lt;span style=&quot;font-size: 14px;&quot;&gt;Модуль&lt;br&gt;авторизации&lt;/span&gt;" style="html=1;dropTarget=0;whiteSpace=wrap;fontSize=14;fontStyle=0" parent="1" vertex="1">
          <mxGeometry x="320" y="310" width="160" height="60" as="geometry" />
        </mxCell>
        <mxCell id="77i7dsQkNjRgF99UxVRS-8" value="" style="shape=module;jettyWidth=8;jettyHeight=4;fontSize=14;" parent="77i7dsQkNjRgF99UxVRS-7" vertex="1">
          <mxGeometry x="1" width="20" height="20" relative="1" as="geometry">
            <mxPoint x="-27" y="7" as="offset" />
          </mxGeometry>
        </mxCell>
        <mxCell id="JCziU4_20GwVzB60mhzX-16" style="edgeStyle=orthogonalEdgeStyle;rounded=0;orthogonalLoop=1;jettySize=auto;html=1;exitX=1;exitY=0.5;exitDx=0;exitDy=0;endArrow=halfCircle;endFill=0;" edge="1" parent="1" source="77i7dsQkNjRgF99UxVRS-9">
          <mxGeometry relative="1" as="geometry">
            <mxPoint x="580" y="420.3333333333335" as="targetPoint" />
          </mxGeometry>
        </mxCell>
        <mxCell id="JCziU4_20GwVzB60mhzX-17" style="edgeStyle=orthogonalEdgeStyle;rounded=0;orthogonalLoop=1;jettySize=auto;html=1;exitX=0;exitY=0.5;exitDx=0;exitDy=0;endArrow=halfCircle;endFill=0;" edge="1" parent="1" source="77i7dsQkNjRgF99UxVRS-9">
          <mxGeometry relative="1" as="geometry">
            <mxPoint x="170" y="420.3333333333335" as="targetPoint" />
          </mxGeometry>
        </mxCell>
        <mxCell id="77i7dsQkNjRgF99UxVRS-9" value="&lt;span style=&quot;font-size: 14px;&quot;&gt;Модуль &lt;br&gt;трансляции&lt;/span&gt;" style="html=1;dropTarget=0;whiteSpace=wrap;fontSize=14;fontStyle=0" parent="1" vertex="1">
          <mxGeometry x="320" y="390" width="160" height="60" as="geometry" />
        </mxCell>
        <mxCell id="77i7dsQkNjRgF99UxVRS-10" value="" style="shape=module;jettyWidth=8;jettyHeight=4;fontSize=14;" parent="77i7dsQkNjRgF99UxVRS-9" vertex="1">
          <mxGeometry x="1" width="20" height="20" relative="1" as="geometry">
            <mxPoint x="-27" y="7" as="offset" />
          </mxGeometry>
        </mxCell>
        <mxCell id="JCziU4_20GwVzB60mhzX-20" style="edgeStyle=orthogonalEdgeStyle;rounded=0;orthogonalLoop=1;jettySize=auto;html=1;exitX=0;exitY=0.5;exitDx=0;exitDy=0;endArrow=circle;endFill=0;" edge="1" parent="1" source="JCziU4_20GwVzB60mhzX-1">
          <mxGeometry relative="1" as="geometry">
            <mxPoint x="270" y="255.33333333333337" as="targetPoint" />
          </mxGeometry>
        </mxCell>
        <mxCell id="JCziU4_20GwVzB60mhzX-1" value="Графический&lt;br&gt;интерфейс" style="html=1;dropTarget=0;whiteSpace=wrap;fontSize=14;fontStyle=0" vertex="1" parent="1">
          <mxGeometry x="320" y="225" width="160" height="60" as="geometry" />
        </mxCell>
        <mxCell id="JCziU4_20GwVzB60mhzX-2" value="" style="shape=module;jettyWidth=8;jettyHeight=4;fontSize=14;" vertex="1" parent="JCziU4_20GwVzB60mhzX-1">
          <mxGeometry x="1" width="20" height="20" relative="1" as="geometry">
            <mxPoint x="-27" y="7" as="offset" />
          </mxGeometry>
        </mxCell>
        <mxCell id="JCziU4_20GwVzB60mhzX-24" style="edgeStyle=orthogonalEdgeStyle;rounded=0;orthogonalLoop=1;jettySize=auto;html=1;exitX=1;exitY=0.5;exitDx=0;exitDy=0;endArrow=circle;endFill=0;" edge="1" parent="1" source="JCziU4_20GwVzB60mhzX-11">
          <mxGeometry relative="1" as="geometry">
            <mxPoint x="170" y="420.3333333333335" as="targetPoint" />
          </mxGeometry>
        </mxCell>
        <mxCell id="JCziU4_20GwVzB60mhzX-11" value="LiveKit" style="html=1;dropTarget=0;whiteSpace=wrap;fontSize=14;fontStyle=0" vertex="1" parent="1">
          <mxGeometry x="-140" y="390" width="160" height="60" as="geometry" />
        </mxCell>
        <mxCell id="JCziU4_20GwVzB60mhzX-12" value="" style="shape=module;jettyWidth=8;jettyHeight=4;fontSize=14;" vertex="1" parent="JCziU4_20GwVzB60mhzX-11">
          <mxGeometry x="1" width="20" height="20" relative="1" as="geometry">
            <mxPoint x="-27" y="7" as="offset" />
          </mxGeometry>
        </mxCell>
        <mxCell id="JCziU4_20GwVzB60mhzX-23" style="edgeStyle=orthogonalEdgeStyle;rounded=0;orthogonalLoop=1;jettySize=auto;html=1;exitX=1;exitY=0.5;exitDx=0;exitDy=0;endArrow=circle;endFill=0;" edge="1" parent="1" source="JCziU4_20GwVzB60mhzX-13">
          <mxGeometry relative="1" as="geometry">
            <mxPoint x="170" y="340.33333333333337" as="targetPoint" />
          </mxGeometry>
        </mxCell>
        <mxCell id="JCziU4_20GwVzB60mhzX-13" value="Clerk" style="html=1;dropTarget=0;whiteSpace=wrap;fontSize=14;fontStyle=0" vertex="1" parent="1">
          <mxGeometry x="-140" y="310" width="160" height="60" as="geometry" />
        </mxCell>
        <mxCell id="JCziU4_20GwVzB60mhzX-14" value="" style="shape=module;jettyWidth=8;jettyHeight=4;fontSize=14;" vertex="1" parent="JCziU4_20GwVzB60mhzX-13">
          <mxGeometry x="1" width="20" height="20" relative="1" as="geometry">
            <mxPoint x="-27" y="7" as="offset" />
          </mxGeometry>
        </mxCell>
      </root>
    </mxGraphModel>
  </diagram>
  <diagram id="GF0YDqDGA1Ok8eJGb5I6" name="Страница — 3">
    <mxGraphModel dx="1399" dy="783" grid="1" gridSize="10" guides="1" tooltips="1" connect="1" arrows="1" fold="1" page="1" pageScale="1" pageWidth="827" pageHeight="1169" math="0" shadow="0">
      <root>
        <mxCell id="0" />
        <mxCell id="1" parent="0" />
        <mxCell id="iRsR_SoxZmpLAucTL3d7-1" value="&lt;font style=&quot;font-size: 16px;&quot;&gt;NetMate&lt;/font&gt;" style="rounded=0;whiteSpace=wrap;html=1;align=center;verticalAlign=top;labelPosition=center;verticalLabelPosition=middle;" vertex="1" parent="1">
          <mxGeometry x="20" y="60" width="700" height="155" as="geometry" />
        </mxCell>
        <mxCell id="iRsR_SoxZmpLAucTL3d7-2" style="edgeStyle=orthogonalEdgeStyle;rounded=0;orthogonalLoop=1;jettySize=auto;html=1;exitX=1;exitY=0.5;exitDx=0;exitDy=0;endArrow=halfCircle;endFill=0;" edge="1" parent="1" source="iRsR_SoxZmpLAucTL3d7-3">
          <mxGeometry relative="1" as="geometry">
            <mxPoint x="250" y="145" as="targetPoint" />
          </mxGeometry>
        </mxCell>
        <mxCell id="iRsR_SoxZmpLAucTL3d7-3" value="&lt;span style=&quot;font-size: 14px;&quot;&gt;Клиентская часть&lt;/span&gt;" style="html=1;dropTarget=0;whiteSpace=wrap;fontSize=14;fontStyle=0" vertex="1" parent="1">
          <mxGeometry x="50" y="115" width="160" height="60" as="geometry" />
        </mxCell>
        <mxCell id="iRsR_SoxZmpLAucTL3d7-4" value="" style="shape=module;jettyWidth=8;jettyHeight=4;fontSize=14;" vertex="1" parent="iRsR_SoxZmpLAucTL3d7-3">
          <mxGeometry x="1" width="20" height="20" relative="1" as="geometry">
            <mxPoint x="-27" y="7" as="offset" />
          </mxGeometry>
        </mxCell>
        <mxCell id="iRsR_SoxZmpLAucTL3d7-5" style="edgeStyle=orthogonalEdgeStyle;rounded=0;orthogonalLoop=1;jettySize=auto;html=1;exitX=1;exitY=0.5;exitDx=0;exitDy=0;endArrow=halfCircle;endFill=0;" edge="1" parent="1" source="iRsR_SoxZmpLAucTL3d7-7">
          <mxGeometry relative="1" as="geometry">
            <mxPoint x="490" y="145" as="targetPoint" />
          </mxGeometry>
        </mxCell>
        <mxCell id="iRsR_SoxZmpLAucTL3d7-6" style="edgeStyle=orthogonalEdgeStyle;rounded=0;orthogonalLoop=1;jettySize=auto;html=1;exitX=0;exitY=0.5;exitDx=0;exitDy=0;endArrow=circle;endFill=0;" edge="1" parent="1" source="iRsR_SoxZmpLAucTL3d7-7">
          <mxGeometry relative="1" as="geometry">
            <mxPoint x="250" y="145" as="targetPoint" />
          </mxGeometry>
        </mxCell>
        <mxCell id="iRsR_SoxZmpLAucTL3d7-17" style="edgeStyle=orthogonalEdgeStyle;rounded=0;orthogonalLoop=1;jettySize=auto;html=1;exitX=0.75;exitY=1;exitDx=0;exitDy=0;endArrow=halfCircle;endFill=0;" edge="1" parent="1" source="iRsR_SoxZmpLAucTL3d7-7">
          <mxGeometry relative="1" as="geometry">
            <mxPoint x="410" y="240" as="targetPoint" />
          </mxGeometry>
        </mxCell>
        <mxCell id="iRsR_SoxZmpLAucTL3d7-18" style="edgeStyle=orthogonalEdgeStyle;rounded=0;orthogonalLoop=1;jettySize=auto;html=1;exitX=0.25;exitY=1;exitDx=0;exitDy=0;endArrow=halfCircle;endFill=0;" edge="1" parent="1" source="iRsR_SoxZmpLAucTL3d7-7">
          <mxGeometry relative="1" as="geometry">
            <mxPoint x="330" y="240" as="targetPoint" />
          </mxGeometry>
        </mxCell>
        <mxCell id="iRsR_SoxZmpLAucTL3d7-7" value="&lt;span style=&quot;font-size: 14px;&quot;&gt;Серверная часть&lt;/span&gt;" style="html=1;dropTarget=0;whiteSpace=wrap;fontSize=14;fontStyle=0" vertex="1" parent="1">
          <mxGeometry x="290" y="115" width="160" height="60" as="geometry" />
        </mxCell>
        <mxCell id="iRsR_SoxZmpLAucTL3d7-8" value="" style="shape=module;jettyWidth=8;jettyHeight=4;fontSize=14;" vertex="1" parent="iRsR_SoxZmpLAucTL3d7-7">
          <mxGeometry x="1" width="20" height="20" relative="1" as="geometry">
            <mxPoint x="-27" y="7" as="offset" />
          </mxGeometry>
        </mxCell>
        <mxCell id="iRsR_SoxZmpLAucTL3d7-9" style="edgeStyle=orthogonalEdgeStyle;rounded=0;orthogonalLoop=1;jettySize=auto;html=1;exitX=0;exitY=0.5;exitDx=0;exitDy=0;endArrow=circle;endFill=0;" edge="1" parent="1" source="iRsR_SoxZmpLAucTL3d7-10">
          <mxGeometry relative="1" as="geometry">
            <mxPoint x="490" y="145" as="targetPoint" />
          </mxGeometry>
        </mxCell>
        <mxCell id="iRsR_SoxZmpLAucTL3d7-10" value="&lt;span style=&quot;font-size: 14px;&quot;&gt;База данных&lt;/span&gt;" style="html=1;dropTarget=0;whiteSpace=wrap;fontSize=14;fontStyle=0" vertex="1" parent="1">
          <mxGeometry x="530" y="115" width="160" height="60" as="geometry" />
        </mxCell>
        <mxCell id="iRsR_SoxZmpLAucTL3d7-11" value="" style="shape=module;jettyWidth=8;jettyHeight=4;fontSize=14;" vertex="1" parent="iRsR_SoxZmpLAucTL3d7-10">
          <mxGeometry x="1" width="20" height="20" relative="1" as="geometry">
            <mxPoint x="-27" y="7" as="offset" />
          </mxGeometry>
        </mxCell>
        <mxCell id="iRsR_SoxZmpLAucTL3d7-19" style="edgeStyle=orthogonalEdgeStyle;rounded=0;orthogonalLoop=1;jettySize=auto;html=1;exitX=1;exitY=0.5;exitDx=0;exitDy=0;endArrow=circle;endFill=0;" edge="1" parent="1" source="iRsR_SoxZmpLAucTL3d7-12">
          <mxGeometry relative="1" as="geometry">
            <mxPoint x="330" y="240" as="targetPoint" />
            <Array as="points">
              <mxPoint x="330" y="270" />
            </Array>
          </mxGeometry>
        </mxCell>
        <mxCell id="iRsR_SoxZmpLAucTL3d7-12" value="&lt;span style=&quot;font-size: 14px;&quot;&gt;Clerk&lt;/span&gt;" style="html=1;dropTarget=0;whiteSpace=wrap;fontSize=14;fontStyle=0" vertex="1" parent="1">
          <mxGeometry x="50" y="240" width="160" height="60" as="geometry" />
        </mxCell>
        <mxCell id="iRsR_SoxZmpLAucTL3d7-13" value="" style="shape=module;jettyWidth=8;jettyHeight=4;fontSize=14;" vertex="1" parent="iRsR_SoxZmpLAucTL3d7-12">
          <mxGeometry x="1" width="20" height="20" relative="1" as="geometry">
            <mxPoint x="-27" y="7" as="offset" />
          </mxGeometry>
        </mxCell>
        <mxCell id="iRsR_SoxZmpLAucTL3d7-20" style="edgeStyle=orthogonalEdgeStyle;rounded=0;orthogonalLoop=1;jettySize=auto;html=1;exitX=0;exitY=0.5;exitDx=0;exitDy=0;endArrow=circle;endFill=0;" edge="1" parent="1" source="iRsR_SoxZmpLAucTL3d7-14">
          <mxGeometry relative="1" as="geometry">
            <mxPoint x="410" y="240" as="targetPoint" />
            <Array as="points">
              <mxPoint x="410" y="270" />
            </Array>
          </mxGeometry>
        </mxCell>
        <mxCell id="iRsR_SoxZmpLAucTL3d7-14" value="&lt;span style=&quot;font-size: 14px;&quot;&gt;LiveKit&lt;/span&gt;" style="html=1;dropTarget=0;whiteSpace=wrap;fontSize=14;fontStyle=0" vertex="1" parent="1">
          <mxGeometry x="530" y="240" width="160" height="60" as="geometry" />
        </mxCell>
        <mxCell id="iRsR_SoxZmpLAucTL3d7-15" value="" style="shape=module;jettyWidth=8;jettyHeight=4;fontSize=14;" vertex="1" parent="iRsR_SoxZmpLAucTL3d7-14">
          <mxGeometry x="1" width="20" height="20" relative="1" as="geometry">
            <mxPoint x="-27" y="7" as="offset" />
          </mxGeometry>
        </mxCell>
      </root>
    </mxGraphModel>
  </diagram>
</mxfile>
